<svg width="280" height="179" viewBox="0 0 280 179" fill="none" xmlns="http://www.w3.org/2000/svg">
    <g filter="url(#a)">
        <path
            d="M215.968 132.888V1.436h16.3q8.1 0 13.4 3.57 5.3 3.408 7.8 11.198 2.6 7.627 2.6 20.124 0 7.627-1 13.956-1 6.167-3.2 10.549-2.2 4.219-5.8 6.167l11.5 65.888h-10.9l-10.6-61.669h-8.8v61.669zm11.3-74.814h4.3q4.8 0 7.8-1.947t4.4-6.654 1.4-13.145q0-11.523-2.6-16.554-2.6-5.193-10.3-5.193h-5z"
            fill="#fff" />
    </g>
    <g filter="url(#b)">
        <path
            d="M175.245 132.888V1.436h31.4v13.632h-20.1v43.493h16.3v12.983h-16.3v48.199h20.3v13.145z"
            fill="#fff" />
    </g>
    <g filter="url(#c)">
        <path d="m138.857 132.888-18.1-131.452h10.6l12.8 96.885 12.2-96.885h10.3l-17.9 131.452z"
            fill="#fff" />
    </g>
    <g filter="url(#d)">
        <path d="M100.552 132.888V1.436h11.1v131.452z" fill="#fff" />
    </g>
    <g filter="url(#e)">
        <path d="M60.206 132.888V1.436h11.3v118.307h20.7v13.145z" fill="#fff" />
    </g>
    <g filter="url(#f)">
        <path
            d="M27 134.348q-8.2 0-13.1-5.193t-7-14.768q-2.1-9.737-2.1-22.72V41.845q0-12.983 2.1-22.233 2.2-9.412 7-14.281Q18.8.3 27 .3t13 5.03q4.8 5.032 6.9 14.282 2.2 9.25 2.2 22.233V91.83q0 12.82-2.2 22.395-2.1 9.575-6.9 14.93-4.8 5.193-13 5.193m0-14.443q4.5 0 6.8-2.921 2.3-3.084 3.1-8.439.8-5.518.8-12.82V38.112q0-7.303-.8-12.496-.8-5.355-3.1-8.115-2.3-2.92-6.8-2.92t-6.9 2.92q-2.3 2.76-3.1 8.115-.8 5.193-.8 12.496v57.611q0 7.303.8 12.821.8 5.355 3.1 8.439 2.4 2.92 6.9 2.921"
            fill="#fff" />
    </g>
    <mask id="g" maskUnits="userSpaceOnUse" x="31.116" y="99.843" width="250.391" height="69.321"
        fill="#000">
        <path fill="#fff" d="M31.116 99.843h250.391v69.321H31.116z" />
        <path
            d="M56.707 158.406q-.9.149-1.587-.276-1.361-.776-1.084-2.363-.013-.075.226-1.886.315-1.824.704-4.123.164-1.336.314-2.286.138-1.025.24-1.811a430 430 0 0 0-4.639 2.694 577 577 0 0 0-5.775 3.268 1235 1235 0 0 1-5.763 3.344 2.13 2.13 0 0 1-1.662.198q-.975-.3-1.498-1.138-.436-.775-.124-1.675a2.3 2.3 0 0 1 1.064-1.485 4957 4957 0 0 1 6.563-3.63 900 900 0 0 1 6.263-3.581 1159 1159 0 0 1 6.525-3.854q.363-.137.738-.2.362-.137.687-.036 1.074-.024 1.698.951.474.537.56 1.525.15.899.06 2.686a30 30 0 0 1-.239 2.274 37 37 0 0 1-.39 2.761 7 7 0 0 1-.062.549 7 7 0 0 0-.063.55q2.725-2.147 6.776-4.667a1.93 1.93 0 0 1 1.65-.273q.948.15 1.385.926.587.75.361 1.712t-.988 1.473a151 151 0 0 0-5.601 3.856q-2.4 1.784-3.839 2.87l-1.437 1.086q-.388.448-1.063.561m29.142-4.83q-.9.15-1.587-.276-1.36-.776-1.085-2.362-.012-.075.227-1.887.315-1.824.703-4.122.164-1.336.315-2.286.138-1.025.239-1.812a449 449 0 0 0-4.638 2.695 558 558 0 0 0-5.775 3.268 1239 1239 0 0 1-5.763 3.343 2.13 2.13 0 0 1-1.662.198 2.6 2.6 0 0 1-1.499-1.138q-.436-.775-.123-1.674a2.3 2.3 0 0 1 1.063-1.486q3.176-1.76 6.563-3.63a900 900 0 0 1 6.263-3.58q2.876-1.709 4.7-2.782l1.826-1.073q.362-.137.737-.199.362-.138.687-.037 1.075-.024 1.699.951.474.538.56 1.525.15.9.06 2.686a30 30 0 0 1-.239 2.274 37 37 0 0 1-.39 2.761 7 7 0 0 1-.063.55 7 7 0 0 0-.063.549q2.726-2.146 6.776-4.666a1.93 1.93 0 0 1 1.65-.274q.95.151 1.386.926.587.75.36 1.712t-.988 1.474a150 150 0 0 0-5.6 3.855q-2.401 1.785-3.839 2.87l-1.438 1.086q-.387.45-1.062.561m38.239-7.107q-.525.087-.999.011-1.474-.063-2.311-1.389-.66-1.2-.247-2.886.489-1.7 1.366-3.847.337-.75.601-1.486.325-.825.526-1.474.112-.25.163-.412.038-.238.087-.4-2.311-.003-5.273.72-2.9.634-6.412 2.218-3.087 1.359-6.612 3.33a110 110 0 0 0-7.288 4.366 2.37 2.37 0 0 1-1.65.273q-.874-.163-1.386-.925-.586-.751-.36-1.712.213-1.038.988-1.474a109 109 0 0 1 7.488-4.553q3.663-2.072 6.975-3.467 8.837-3.853 14.946-3.248 1.8.165 2.747 1.702.95 1.537.309 3.723a46 46 0 0 1-1.628 4.584 4 4 0 0 1-.163.413 5 5 0 0 0-.213.574q1.662-.66 4.85-2.344t8.751-4.84q.774-.436 1.674-.124.962.226 1.411 1.076.511.763.286 1.725-.239.886-1.151 1.423a1351 1351 0 0 1-5.938 3.218q-2.688 1.447-4.825 2.495-2.85 1.396-4.362 2.032-1.525.561-2.35.698m44.152-7.318q-.525.087-1 .012-1.474-.063-2.31-1.389-.661-1.2-.247-2.886.489-1.7 1.365-3.847.339-.75.601-1.487.326-.823.526-1.473.114-.25.163-.413.038-.237.088-.399-2.312-.003-5.273.719-2.9.636-6.412 2.219-3.087 1.359-6.612 3.33a110 110 0 0 0-7.289 4.366 2.37 2.37 0 0 1-1.649.273q-.874-.163-1.386-.926-.586-.75-.361-1.712.213-1.036.989-1.473a109 109 0 0 1 7.488-4.554q3.663-2.07 6.975-3.467 8.836-3.853 14.946-3.247 1.799.164 2.747 1.702t.309 3.723a46 46 0 0 1-1.628 4.584 4 4 0 0 1-.163.412 5 5 0 0 0-.213.575q1.662-.661 4.85-2.345 3.188-1.683 8.75-4.839.775-.437 1.675-.124.961.226 1.411 1.076.511.762.285 1.724-.237.888-1.15 1.424a1351 1351 0 0 1-5.938 3.218q-2.688 1.446-4.825 2.494-2.85 1.398-4.363 2.033-1.524.56-2.349.697m27.558-6.107a2 2 0 0 1-.612.024q-1.25-.1-1.874-.614-.561-.6-.774-.95-.798-1.563-.184-3.436.602-1.949 1.703-4.134.35-.674.614-1.412.325-.824.538-1.399.063-.087.175-.337a13 13 0 0 0-1.05.637q-.55.399-1.275 1.135-1.213 1.048-2.489 2.647a132 132 0 0 0-2.627 3.209q-.325.361-.713.811l-.625.874a2.34 2.34 0 0 1-1.475.861q-.987.086-1.712-.564-.786-.563-.86-1.475-.087-.987.489-1.699a12 12 0 0 1 .7-.886q.313-.438.638-.799a81 81 0 0 1 4.065-4.757q2.014-2.26 4.101-3.607t4.287-1.096q1.325.089 1.973.752.712.575.874 1.088.948 1.537.284 3.573-.676 1.961-1.816 4.384a3 3 0 0 0-.288.587 4 4 0 0 1-.275.662q1.05-.637 2.738-1.609a754 754 0 0 0 4.075-2.371q.925-.461 1.824-.148.888.239 1.336 1.088.512.763.211 1.737a2.37 2.37 0 0 1-1.001 1.399q-2.262 1.223-4.1 2.22a97 97 0 0 0-3.1 1.746q-.7.425-1.263.749a26 26 0 0 0-.925.461 10 10 0 0 0-.85.449 4 4 0 0 1-.737.2m17.755 3.759q-.525.087-1.074.024l-1.075.024q-1.412-.151-2.135-1.264-.924-1.387-.597-3.599.39-2.298 1.48-5.946.2-.65.376-1.449a35 35 0 0 0 .439-1.536q-.912.537-1.888 1.623-.913.998-1.889 2.084a2.48 2.48 0 0 1-1.575.724q-.999.01-1.711-.564a2.18 2.18 0 0 1-.648-1.587q-.075-.913.489-1.699a52 52 0 0 0 1.901-2.01 16 16 0 0 1 2.15-1.897q2.814-2.084 5.487-1.757 1.237.026 2.048 1.201.798 1.101.422 3.012-.302 1.899-1.292 5.221-.226.963-.526 1.936a60 60 0 0 1-.464 1.849 1.7 1.7 0 0 1-.138.562l-.075.475q1.536-.486 4.312-2.332 2.838-1.935 7.328-6.916a98 98 0 0 0 4.328-5.031 153 153 0 0 0 3.027-4.045l1.126-1.574q.725-1.199 2.063-1.035.612-.024 1.061.364.438.312.724.65.7.963.485 2.462-.15 1.412-.916 4.697l-.577 2.098a33 33 0 0 1-.451 1.924 8 8 0 0 1-.063.55q.024.15-.025.312 1.387-.46 2.8-1.697a29 29 0 0 0 2.764-2.846 126 126 0 0 0 2.264-2.609q.638-.8 1.55-.873.912-.075 1.698.489.724.65.799 1.562.149.9-.489 1.699a71 71 0 0 1-4.165 4.619q-2.101 2.198-4.426 3.507a8.64 8.64 0 0 1-4.836 1.033q-1.287-.327-1.973-1.214-.624-.976-.686-2.275.014-1.311.378-3.298a24 24 0 0 1-1.488 1.71q-.712.812-1.551 1.798-8.993 9.887-14.766 10.844m50.294-12.726q-.9.15-1.587-.276-1.36-.776-1.085-2.363-.012-.075.227-1.886.314-1.824.703-4.123.163-1.337.315-2.286.138-1.024.239-1.811a442 442 0 0 0-4.638 2.694 573 573 0 0 0-5.776 3.269 1295 1295 0 0 1-5.762 3.343 2.13 2.13 0 0 1-1.662.198q-.975-.3-1.499-1.138-.436-.775-.123-1.675a2.3 2.3 0 0 1 1.063-1.485 5373 5373 0 0 1 6.563-3.63 859 859 0 0 1 6.263-3.58q2.876-1.71 4.7-2.782l1.826-1.073q.362-.138.737-.199a1.03 1.03 0 0 1 .687-.037q1.075-.024 1.699.951.474.538.56 1.525.15.9.06 2.686a30 30 0 0 1-.239 2.274 38 38 0 0 1-.39 2.761 7 7 0 0 1-.063.549 8 8 0 0 0-.063.55q2.726-2.147 6.776-4.667a1.94 1.94 0 0 1 1.65-.273q.95.151 1.386.926.586.75.361 1.712-.226.962-.989 1.473a153 153 0 0 0-5.601 3.856 669 669 0 0 0-5.276 3.956q-.388.45-1.062.561" />
    </mask>
    <path
        d="M56.707 158.406q-.9.149-1.587-.276-1.361-.776-1.084-2.363-.013-.075.226-1.886.315-1.824.704-4.123.164-1.336.314-2.286.138-1.025.24-1.811a430 430 0 0 0-4.639 2.694 577 577 0 0 0-5.775 3.268 1235 1235 0 0 1-5.763 3.344 2.13 2.13 0 0 1-1.662.198q-.975-.3-1.498-1.138-.436-.775-.124-1.675a2.3 2.3 0 0 1 1.064-1.485 4957 4957 0 0 1 6.563-3.63 900 900 0 0 1 6.263-3.581 1159 1159 0 0 1 6.525-3.854q.363-.137.738-.2.362-.137.687-.036 1.074-.024 1.698.951.474.537.56 1.525.15.899.06 2.686a30 30 0 0 1-.239 2.274 37 37 0 0 1-.39 2.761 7 7 0 0 1-.062.549 7 7 0 0 0-.063.55q2.725-2.147 6.776-4.667a1.93 1.93 0 0 1 1.65-.273q.948.15 1.385.926.587.75.361 1.712t-.988 1.473a151 151 0 0 0-5.601 3.856q-2.4 1.784-3.839 2.87l-1.437 1.086q-.388.448-1.063.561m29.142-4.83q-.9.15-1.587-.276-1.36-.776-1.085-2.362-.012-.075.227-1.887.315-1.824.703-4.122.164-1.336.315-2.286.138-1.025.239-1.812a449 449 0 0 0-4.638 2.695 558 558 0 0 0-5.775 3.268 1239 1239 0 0 1-5.763 3.343 2.13 2.13 0 0 1-1.662.198 2.6 2.6 0 0 1-1.499-1.138q-.436-.775-.123-1.674a2.3 2.3 0 0 1 1.063-1.486q3.176-1.76 6.563-3.63a900 900 0 0 1 6.263-3.58q2.876-1.709 4.7-2.782l1.826-1.073q.362-.137.737-.199.362-.138.687-.037 1.075-.024 1.699.951.474.538.56 1.525.15.9.06 2.686a30 30 0 0 1-.239 2.274 37 37 0 0 1-.39 2.761 7 7 0 0 1-.063.55 7 7 0 0 0-.063.549q2.726-2.146 6.776-4.666a1.93 1.93 0 0 1 1.65-.274q.95.151 1.386.926.587.75.36 1.712t-.988 1.474a150 150 0 0 0-5.6 3.855q-2.401 1.785-3.839 2.87l-1.438 1.086q-.387.45-1.062.561m38.239-7.107q-.525.087-.999.011-1.474-.063-2.311-1.389-.66-1.2-.247-2.886.489-1.7 1.366-3.847.337-.75.601-1.486.325-.825.526-1.474.112-.25.163-.412.038-.238.087-.4-2.311-.003-5.273.72-2.9.634-6.412 2.218-3.087 1.359-6.612 3.33a110 110 0 0 0-7.288 4.366 2.37 2.37 0 0 1-1.65.273q-.874-.163-1.386-.925-.586-.751-.36-1.712.213-1.038.988-1.474a109 109 0 0 1 7.488-4.553q3.663-2.072 6.975-3.467 8.837-3.853 14.946-3.248 1.8.165 2.747 1.702.95 1.537.309 3.723a46 46 0 0 1-1.628 4.584 4 4 0 0 1-.163.413 5 5 0 0 0-.213.574q1.662-.66 4.85-2.344t8.751-4.84q.774-.436 1.674-.124.962.226 1.411 1.076.511.763.286 1.725-.239.886-1.151 1.423a1351 1351 0 0 1-5.938 3.218q-2.688 1.447-4.825 2.495-2.85 1.396-4.362 2.032-1.525.561-2.35.698m44.152-7.318q-.525.087-1 .012-1.474-.063-2.31-1.389-.661-1.2-.247-2.886.489-1.7 1.365-3.847.339-.75.601-1.487.326-.823.526-1.473.114-.25.163-.413.038-.237.088-.399-2.312-.003-5.273.719-2.9.636-6.412 2.219-3.087 1.359-6.612 3.33a110 110 0 0 0-7.289 4.366 2.37 2.37 0 0 1-1.649.273q-.874-.163-1.386-.926-.586-.75-.361-1.712.213-1.036.989-1.473a109 109 0 0 1 7.488-4.554q3.663-2.07 6.975-3.467 8.836-3.853 14.946-3.247 1.799.164 2.747 1.702t.309 3.723a46 46 0 0 1-1.628 4.584 4 4 0 0 1-.163.412 5 5 0 0 0-.213.575q1.662-.661 4.85-2.345 3.188-1.683 8.75-4.839.775-.437 1.675-.124.961.226 1.411 1.076.511.762.285 1.724-.237.888-1.15 1.424a1351 1351 0 0 1-5.938 3.218q-2.688 1.446-4.825 2.494-2.85 1.398-4.363 2.033-1.524.56-2.349.697m27.558-6.107a2 2 0 0 1-.612.024q-1.25-.1-1.874-.614-.561-.6-.774-.95-.798-1.563-.184-3.436.602-1.949 1.703-4.134.35-.674.614-1.412.325-.824.538-1.399.063-.087.175-.337a13 13 0 0 0-1.05.637q-.55.399-1.275 1.135-1.213 1.048-2.489 2.647a132 132 0 0 0-2.627 3.209q-.325.361-.713.811l-.625.874a2.34 2.34 0 0 1-1.475.861q-.987.086-1.712-.564-.786-.563-.86-1.475-.087-.987.489-1.699a12 12 0 0 1 .7-.886q.313-.438.638-.799a81 81 0 0 1 4.065-4.757q2.014-2.26 4.101-3.607t4.287-1.096q1.325.089 1.973.752.712.575.874 1.088.948 1.537.284 3.573-.676 1.961-1.816 4.384a3 3 0 0 0-.288.587 4 4 0 0 1-.275.662q1.05-.637 2.738-1.609a754 754 0 0 0 4.075-2.371q.925-.461 1.824-.148.888.239 1.336 1.088.512.763.211 1.737a2.37 2.37 0 0 1-1.001 1.399q-2.262 1.223-4.1 2.22a97 97 0 0 0-3.1 1.746q-.7.425-1.263.749a26 26 0 0 0-.925.461 10 10 0 0 0-.85.449 4 4 0 0 1-.737.2m17.755 3.759q-.525.087-1.074.024l-1.075.024q-1.412-.151-2.135-1.264-.924-1.387-.597-3.599.39-2.298 1.48-5.946.2-.65.376-1.449a35 35 0 0 0 .439-1.536q-.912.537-1.888 1.623-.913.998-1.889 2.084a2.48 2.48 0 0 1-1.575.724q-.999.01-1.711-.564a2.18 2.18 0 0 1-.648-1.587q-.075-.913.489-1.699a52 52 0 0 0 1.901-2.01 16 16 0 0 1 2.15-1.897q2.814-2.084 5.487-1.757 1.237.026 2.048 1.201.798 1.101.422 3.012-.302 1.899-1.292 5.221-.226.963-.526 1.936a60 60 0 0 1-.464 1.849 1.7 1.7 0 0 1-.138.562l-.075.475q1.536-.486 4.312-2.332 2.838-1.935 7.328-6.916a98 98 0 0 0 4.328-5.031 153 153 0 0 0 3.027-4.045l1.126-1.574q.725-1.199 2.063-1.035.612-.024 1.061.364.438.312.724.65.7.963.485 2.462-.15 1.412-.916 4.697l-.577 2.098a33 33 0 0 1-.451 1.924 8 8 0 0 1-.063.55q.024.15-.025.312 1.387-.46 2.8-1.697a29 29 0 0 0 2.764-2.846 126 126 0 0 0 2.264-2.609q.638-.8 1.55-.873.912-.075 1.698.489.724.65.799 1.562.149.9-.489 1.699a71 71 0 0 1-4.165 4.619q-2.101 2.198-4.426 3.507a8.64 8.64 0 0 1-4.836 1.033q-1.287-.327-1.973-1.214-.624-.976-.686-2.275.014-1.311.378-3.298a24 24 0 0 1-1.488 1.71q-.712.812-1.551 1.798-8.993 9.887-14.766 10.844m50.294-12.726q-.9.15-1.587-.276-1.36-.776-1.085-2.363-.012-.075.227-1.886.314-1.824.703-4.123.163-1.337.315-2.286.138-1.024.239-1.811a442 442 0 0 0-4.638 2.694 573 573 0 0 0-5.776 3.269 1295 1295 0 0 1-5.762 3.343 2.13 2.13 0 0 1-1.662.198q-.975-.3-1.499-1.138-.436-.775-.123-1.675a2.3 2.3 0 0 1 1.063-1.485 5373 5373 0 0 1 6.563-3.63 859 859 0 0 1 6.263-3.58q2.876-1.71 4.7-2.782l1.826-1.073q.362-.138.737-.199a1.03 1.03 0 0 1 .687-.037q1.075-.024 1.699.951.474.538.56 1.525.15.9.06 2.686a30 30 0 0 1-.239 2.274 38 38 0 0 1-.39 2.761 7 7 0 0 1-.063.549 8 8 0 0 0-.063.55q2.726-2.147 6.776-4.667a1.94 1.94 0 0 1 1.65-.273q.95.151 1.386.926.586.75.361 1.712-.226.962-.989 1.473a153 153 0 0 0-5.601 3.856 669 669 0 0 0-5.276 3.956q-.388.45-1.062.561"
        fill="#EF0830" />
    <path
        d="m55.12 158.13 1.054-1.701-.031-.019-.032-.018zm-1.084-2.363 1.97.343.058-.334-.055-.336zm.226-1.886-1.97-.34-.007.039-.005.039zm.704-4.123 1.972.334.007-.045.006-.046zm.314-2.286 1.975.314.004-.023.003-.023zm.24-1.811 1.983.253.51-3.98-3.486 1.99zm-4.639 2.694.975 1.747.02-.011.019-.012zm-5.775 3.268-.995-1.735-.006.004-.007.004zm-5.763 3.344.982 1.742.008-.005.009-.005zm-1.662.198-.59 1.911.036.011.035.01zm-1.498-1.138-1.743.981.023.04.024.039zm-.124-1.675 1.89.658.034-.099.024-.102zm1.064-1.485-.97-1.75-.046.026-.045.028zm6.563-3.63.967 1.75.016-.009.016-.009zm6.263-3.581.985 1.741.018-.01.019-.011zm4.7-2.781 1.014 1.724zm1.825-1.073-.707-1.871-.16.06-.146.087zm.738-.2.326 1.974.196-.033.185-.07zm.687-.036-.59 1.911.31.095.324-.007zm1.698.951-1.685 1.078.083.129.102.116zm.56 1.525-1.991.174.006.077.013.076zm.06 2.686 1.997.125v-.013l.001-.012zm-.239 2.274-1.98-.277-.006.042-.004.042zm-.39 2.761-1.97-.344-.016.091-.007.091zm-.062.549-1.976-.314v.001zm-.063.55-1.994-.161-.37 4.568 3.601-2.836zm6.776-4.667 1.056 1.698.03-.018.028-.019zm1.65-.273-.52 1.931.102.028.104.016zm1.385.926-1.742.981.074.132.093.119zm.361 1.712-1.947-.457zm-.988 1.473 1.1 1.67.007-.004.007-.005zm-5.601 3.856-1.175-1.619-.01.007-.008.007zm-3.839 2.87-1.205-1.596zm-1.437 1.086-1.206-1.596-.17.128-.139.161zm-1.39-1.412a.5.5 0 0 1-.176.008.1.1 0 0 1-.03-.012l-2.107 3.401c.923.572 1.955.717 2.967.549zm-.27-.041a.7.7 0 0 1-.134-.095c-.008-.008 0-.001.01.019.01.021.007.026.005.002a.8.8 0 0 1 .015-.208l-3.94-.686c-.146.832-.101 1.72.285 2.562.389.846 1.038 1.459 1.78 1.881zm-.101-.952a2 2 0 0 1 .026.347c0 .036-.003.061-.003.064l.003-.033c.007-.064.018-.168.037-.321q.054-.453.173-1.355l-3.965-.523q-.12.91-.18 1.401a20 20 0 0 0-.06.571l-.005.124c0 .007-.006.177.028.379zm.224-1.22q.315-1.827.705-4.128l-3.944-.668q-.39 2.297-.703 4.117zm.718-4.219q.161-1.313.304-2.215l-3.95-.628a68 68 0 0 0-.325 2.357zm.311-2.261q.14-1.03.241-1.826l-3.968-.507q-.099.778-.237 1.797zm-2.735-3.816q-1.914 1.094-4.66 2.707l2.028 3.448q2.73-1.605 4.616-2.682zm-4.62 2.685a585 585 0 0 0-5.796 3.279l1.99 3.471q3.016-1.729 5.755-3.257zm-5.809 3.287a1256 1256 0 0 1-5.754 3.338l1.998 3.465q2.817-1.625 5.772-3.348zm-5.737 3.328q-.035.02-.045.022l-.013.003s-.03.004-.103-.015l-1.038 3.863a4.14 4.14 0 0 0 3.163-.388zm-.09.03c-.207-.064-.307-.151-.393-.288l-3.39 2.121a4.6 4.6 0 0 0 2.603 1.989zm-.346-.209q-.008-.018-.003-.004l.006.033q0 .017.001.007a.4.4 0 0 1 .02-.071l-3.778-1.315c-.383 1.098-.325 2.258.27 3.313zm.082-.236c.03-.127.065-.177.177-.247l-2.122-3.391a4.3 4.3 0 0 0-1.95 2.724zm.085-.193q3.174-1.758 6.56-3.629l-1.933-3.501q-3.39 1.872-6.565 3.631zm6.593-3.647a888 888 0 0 1 6.249-3.572l-1.97-3.481a868 868 0 0 0-6.277 3.588zm6.285-3.593q2.874-1.708 4.693-2.777l-2.027-3.449q-1.831 1.077-4.71 2.787zm4.693-2.777.056-.034.056-.032.108-.064.053-.031.027-.016.026-.015.05-.03.014-.008.006-.003.006-.004.007-.004.006-.003.006-.004.006-.004.371-.218.084-.049.01-.006.005-.003.005-.003c.032-.018-.011.007.02-.012l.01-.006.005-.003.005-.002.005-.003.005-.003.01-.006.077-.045.073-.043.135-.08.121-.071.107-.063.025-.014.023-.014.012-.007.011-.006.022-.013.142-.084.004-.002.004-.002.006-.004.013-.008.023-.013.036-.021.001-.001.003-.001.001-.001.001-.001.007-.004.008-.005h.001v-.001h.001l.002-.001c.002-.001-.001.001 0 0l.002-.001v-.001h.001l-1.013-1.724-1.013-1.724h-.001l-.001.001-.006.003-.037.022-.01.005-.004.003-.003.002h-.001l-.002.001-.01.007-.013.007-.026.016-.343.201-.256.151-.314.184-.178.105-.193.113-.207.121-.013.008-.013.008-.027.016-.014.008-.007.004-.007.004-.007.004-.007.004-.013.008-.028.017-.014.008-.007.004-.007.004-.028.017-.029.016zm1.519-.927q.18-.067.356-.096l-.653-3.947a6 6 0 0 0-1.118.302zm.737-.199a.8.8 0 0 1-.247.049 1 1 0 0 1-.363-.045l1.18-3.822a3.03 3.03 0 0 0-1.985.077zm.024.092c.025 0 .026.002.008-.002l-.032-.01-.036-.017-.025-.016-.004-.003a.4.4 0 0 1 .058.078l3.37-2.156c-.757-1.183-1.951-1.906-3.428-1.873zm.154.275c-.056-.064.034-.015.069.376l3.984-.349c-.08-.925-.364-1.892-1.053-2.673zm.088.529c.063.381.093 1.102.035 2.259l3.995.2c.061-1.226.052-2.295-.084-3.113zm.037 2.234a28 28 0 0 1-.224 2.122l3.961.553q.185-1.32.255-2.425zm-.234 2.206a35 35 0 0 1-.37 2.61l3.94.687a39 39 0 0 0 .411-2.912zm-.393 2.792q-.022.256-.045.397l3.95.628q.053-.333.082-.702zm-.045.398a9 9 0 0 0-.08.702l3.986.322q.022-.255.045-.397zm3.15 2.434c1.742-1.372 3.936-2.885 6.595-4.54l-2.113-3.396c-2.741 1.706-5.065 3.304-6.957 4.794zm6.653-4.577.023-.015-.017.003-.016.002h-.009q-.003-.002.036.007l1.037-3.863a3.93 3.93 0 0 0-3.282.544zm.222.041q.056.011.056.013l-.009-.004-.023-.014a.3.3 0 0 1-.052-.045l-.015-.018 3.485-1.963c-.617-1.096-1.635-1.732-2.815-1.919zm.124.183.013.018-.011-.035-.003-.017v-.004a.3.3 0 0 1-.01.061l3.894.914c.283-1.206.048-2.403-.732-3.401zm-.01.023c-.045.19-.101.232-.156.269l2.228 3.322c.962-.645 1.565-1.585 1.821-2.677zm-.142.26a153 153 0 0 0-5.676 3.907l2.35 3.237a151 151 0 0 1 5.526-3.804zm-5.694 3.921a682 682 0 0 0-3.85 2.879l2.41 3.192q1.428-1.079 3.826-2.861zm-3.85 2.879-1.08.814-.341.259-.002.001-.003.002-.004.003v.001h-.002v.001h-.001v.001h-.001l-.002.001v.001h-.001v.001h-.001v.001l1.205 1.596 1.205 1.596.001-.001.004-.003.017-.013.013-.01.015-.011.04-.03.27-.204.201-.152.118-.089.13-.098.14-.106.152-.114.163-.123.02-.016.011-.008.006-.004.005-.004.021-.017.006-.004.005-.004.006-.004.005-.004.089-.067zm-1.748 1.375a.4.4 0 0 1 .12-.097c.038-.019.047-.015.005-.008l.654 3.946c.837-.139 1.64-.521 2.25-1.228zm28.007-3.238 1.053-1.7-.03-.019-.032-.018zm-1.085-2.362 1.97.343.059-.335-.056-.335zm.227-1.887-1.971-.339-.007.039-.005.039zm.703-4.122 1.972.334.008-.046.005-.045zm.315-2.286 1.975.313.004-.023.003-.023zm.239-1.812 1.984.254.509-3.981-3.485 1.99zm-4.638 2.695.974 1.746.02-.011.02-.011zm-5.775 3.268-.995-1.735-.007.004-.006.003zm-5.763 3.343.981 1.743.009-.005.009-.005zm-1.662.198-.59 1.912.035.01.036.01zm-1.499-1.138-1.742.982.023.04.024.039zm-.123-1.674 1.889.658.034-.099.024-.102zm1.063-1.486-.969-1.75-.046.026-.045.028zm6.563-3.63.967 1.751.016-.009.016-.009zm6.263-3.58.985 1.741.019-.011.018-.011zm4.7-2.782 1.014 1.724zm1.826-1.073-.708-1.871-.16.061-.146.086zm.737-.199.327 1.973.195-.032.186-.07zm.687-.037-.59 1.911.31.096.325-.007zm1.699.951-1.685 1.078.083.13.102.115zm.56 1.525-1.992.175.007.076.012.076zm.06 2.686 1.997.125v-.012l.001-.013zm-.239 2.274-1.98-.276-.007.042-.004.042zm-.39 2.761-1.97-.343-.016.09-.007.092zm-.063.55-1.975-.314zm-.063.549-1.993-.161-.37 4.568 3.6-2.835zm6.776-4.666 1.057 1.698.03-.018.028-.019zm1.65-.274-.519 1.932.102.027.103.017zm1.386.926-1.743.982.074.131.093.119zm.36 1.712-1.946-.457zm-.988 1.474 1.1 1.67.007-.005.008-.004zm-5.6 3.855-1.175-1.618-.01.006-.009.007zm-3.839 2.87-1.205-1.596zm-1.438 1.086-1.205-1.596-.17.128-.14.162zm-1.39-1.412c-.106.018-.16.011-.176.009-.011-.003-.017-.004-.03-.012L83.21 155c.923.572 1.955.717 2.967.549zm-.269-.04a.6.6 0 0 1-.134-.096c-.008-.008 0-.001.01.02.009.02.007.025.004.002a.8.8 0 0 1 .016-.208l-3.941-.687c-.145.832-.1 1.721.286 2.562.388.847 1.038 1.459 1.779 1.882zm-.102-.952a2 2 0 0 1 .026.346c0 .037-.002.062-.002.065l.003-.033q.009-.094.036-.322.055-.452.174-1.354l-3.966-.523q-.12.91-.18 1.4a20 20 0 0 0-.059.572l-.005.124c0 .007-.006.176.027.379zm.225-1.22q.314-1.827.704-4.128l-3.944-.668q-.388 2.296-.702 4.117zm.718-4.219q.16-1.313.304-2.216l-3.95-.627q-.159.995-.325 2.357zm.31-2.262q.14-1.03.242-1.825l-3.968-.508q-.1.778-.237 1.798zm-2.734-3.816q-1.915 1.094-4.66 2.707l2.027 3.449q2.731-1.606 4.617-2.682zm-4.62 2.685a566 566 0 0 0-5.796 3.28l1.99 3.47q3.015-1.728 5.754-3.257zm-5.81 3.287a1251 1251 0 0 1-5.753 3.338l1.998 3.466q2.817-1.624 5.772-3.349zm-5.736 3.329a.3.3 0 0 1-.058.024s-.03.005-.103-.015l-1.038 3.863c1.078.29 2.173.17 3.162-.387zm-.09.029c-.207-.063-.307-.15-.393-.288l-3.391 2.122a4.62 4.62 0 0 0 2.604 1.989zm-.346-.208q-.009-.017-.003-.005l.006.033v.007a.4.4 0 0 1 .02-.07l-3.778-1.316c-.382 1.098-.325 2.258.27 3.314zm.081-.236c.03-.128.066-.178.177-.248l-2.121-3.391a4.3 4.3 0 0 0-1.95 2.725zm.086-.194q3.174-1.758 6.56-3.628l-1.934-3.502a6356 6356 0 0 0-6.565 3.631zm6.592-3.646a890 890 0 0 1 6.25-3.572l-1.97-3.482a953 953 0 0 0-6.278 3.588zm6.286-3.594q2.874-1.707 4.692-2.777l-2.027-3.448q-1.83 1.076-4.709 2.787zm4.692-2.777.057-.033.055-.033.11-.064.052-.031.026-.015.026-.016.052-.03.012-.007.006-.004.007-.004.006-.003.006-.004.007-.004.006-.003.37-.218.084-.049.01-.006.006-.003.005-.003c.031-.019-.012.006.02-.012l.01-.006.005-.003.005-.003.005-.003.005-.003.01-.006.076-.045.073-.043.136-.079.12-.071.108-.063.024-.015.024-.014.011-.006.012-.007.022-.013.142-.084.004-.002.003-.002.007-.004.013-.007.023-.014.036-.021.001-.001.002-.001.002-.001.001-.001.006-.003.01-.005v-.001l.002-.001.001-.001.001-.001h.001v-.001h.001l-1.013-1.724-1.014-1.724v.001H84.6l-.006.003-.021.013-.016.009-.01.006-.005.003-.002.001-.002.001-.001.001-.011.006-.012.007-.027.016-.342.201-.257.151-.313.184-.179.105-.399.235-.013.008-.014.008-.027.016-.014.008-.006.004-.007.004-.007.004-.007.004-.014.008-.027.016-.014.008-.007.004-.007.005-.029.016-.028.017zm1.52-.926q.18-.069.356-.097l-.654-3.946a6 6 0 0 0-1.118.301zm.737-.199a.8.8 0 0 1-.248.048 1 1 0 0 1-.363-.045l1.18-3.822a3.04 3.04 0 0 0-1.985.077zm.024.092c.025-.001.025.002.007-.002l-.031-.01a.4.4 0 0 1-.061-.033l-.005-.004a.5.5 0 0 1 .059.078l3.37-2.156c-.758-1.183-1.952-1.905-3.428-1.872zm.154.274c-.057-.064.034-.015.068.377l3.985-.35c-.081-.924-.365-1.892-1.053-2.673zm.087.529c.064.382.094 1.103.036 2.26l3.995.199c.061-1.225.051-2.295-.084-3.113zm.037 2.234q-.056.919-.224 2.123l3.962.552q.185-1.319.255-2.425zm-.234 2.207c-.07.718-.19 1.585-.37 2.61l3.942.686q.286-1.638.41-2.912zm-.392 2.792a5 5 0 0 1-.045.397l3.95.627q.053-.333.082-.702zm-.045.397a9 9 0 0 0-.081.702l3.987.323c.014-.172.03-.302.044-.398zm3.15 2.435c1.742-1.373 3.936-2.886 6.595-4.54l-2.113-3.396c-2.742 1.705-5.065 3.303-6.957 4.793zm6.653-4.577c.022-.016.032-.019.03-.019l-.008.003-.016.004-.017.001-.008.001q-.003-.002.035.007l1.038-3.863a3.93 3.93 0 0 0-3.283.544zm.221.041q.058.01.056.012l-.009-.004a.3.3 0 0 1-.075-.058l-.015-.018 3.485-1.963c-.617-1.097-1.634-1.733-2.814-1.92zm.124.182q.02.028.014.018l-.006-.014-.008-.037v-.004q.002.004-.01.06l3.894.914c.283-1.206.048-2.403-.733-3.401zm-.01.023c-.045.19-.1.233-.156.27l2.228 3.322c.962-.646 1.565-1.585 1.822-2.678zm-.142.26a153 153 0 0 0-5.675 3.908l2.35 3.237a148 148 0 0 1 5.525-3.804zm-5.694 3.921a678 678 0 0 0-3.85 2.879l2.41 3.193q1.43-1.08 3.826-2.862zm-3.85 2.879-1.079.815-.27.203-.072.055-.001.001-.001.001-.002.001-.004.003v.001h-.001l-.001.001-.001.001h-.001v.001l-.002.001q-.002 0 0 0l-.001.001h-.001v.001h-.001l1.205 1.596 1.205 1.596.002-.001.004-.003.017-.013.012-.009.016-.012.04-.03.269-.203.202-.153.247-.186.14-.107.152-.114.163-.123.021-.016.01-.008.006-.004.005-.004.027-.02.006-.004.005-.005.006-.004.088-.066zm-1.747 1.376a.4.4 0 0 1 .12-.097c.038-.02.046-.016.005-.009l.654 3.946c.837-.138 1.64-.521 2.25-1.227zm37.692-5.229.313-1.975-.113-.018-.114-.005zm-2.311-1.389-1.751.965.028.052.032.05zm-.247-2.886-1.922-.553-.011.038-.009.038zm1.366-3.847-1.824-.823-.015.034-.013.033zm.601-1.486-1.861-.735-.012.031-.011.031zm.526-1.474-1.823-.823-.052.114-.036.119zm.163-.412 1.911.589.041-.135.023-.141zm.087-.4 1.911.59.799-2.588-2.708-.002zm-5.273.72.428 1.953.023-.005.023-.005zm-6.412 2.218.806 1.83.008-.003.008-.004zm-6.612 3.33.956 1.757.01-.006.01-.006zm-7.288 4.366.981 1.743.055-.031.053-.034zm-1.65.273-.367 1.967zm-1.386-.925 1.661-1.115-.04-.06-.045-.057zm-.36-1.712 1.947.457.006-.027.005-.027zm.988-1.474.981 1.743.062-.035.06-.039zm7.488-4.553.965 1.751.01-.005.009-.005zm6.975-3.467.777 1.842.011-.004.011-.005zm14.946-3.248-.197 1.99.008.001.008.001zm2.747 1.702 1.703-1.05zm.309 3.723-1.919-.561zm-1.628 4.584-1.849-.762-.035.085-.027.087zm-.376.987-1.911-.59-1.232 3.991 3.882-1.542zm4.85-2.344.934 1.768zm8.751-4.84-.982-1.743-.005.003zm1.674-.124-.658 1.889.099.035.102.023zm1.411 1.076-1.769.934.049.093.059.087zm.286 1.725 1.931.518.008-.03.008-.031zm-1.151 1.423.957 1.756.028-.015.028-.017zm-5.938 3.218.948 1.761zm-4.825 2.495.88 1.795zm-4.362 2.032.69 1.877.043-.016.042-.017zm-2.677-1.275c-.16.026-.276.022-.359.009l-.627 3.95c.55.088 1.101.076 1.64-.013zm-.586-.014c-.281-.012-.472-.089-.705-.458l-3.383 2.134c.881 1.398 2.23 2.247 3.915 2.32zm-.645-.356c-.139-.252-.246-.672-.057-1.444l-3.884-.954c-.363 1.477-.305 2.98.438 4.328zm-.077-1.368c.301-1.047.73-2.259 1.295-3.645l-3.703-1.511q-.908 2.22-1.436 4.05zm1.267-3.578q.37-.82.661-1.636l-3.767-1.345q-.234.657-.541 1.336zm.638-1.574q.346-.876.577-1.618l-3.822-1.18q-.171.556-.476 1.329zm.489-1.386c.091-.202.183-.424.251-.645l-3.822-1.179-.015.039q-.02.05-.06.14zm.315-.921q.011-.07.019-.103t.004-.02l-3.822-1.18c-.07.227-.117.459-.152.676zm-1.886-2.713c-1.742-.002-3.665.269-5.749.777l.948 3.886c1.865-.455 3.458-.664 4.798-.663zm-5.703.766c-2.101.46-4.373 1.252-6.806 2.349l1.644 3.646c2.251-1.014 4.254-1.701 6.018-2.088zm-6.789 2.341q-3.19 1.405-6.783 3.415l1.952 3.491q3.457-1.932 6.442-3.245zm-6.763 3.404a112 112 0 0 0-7.421 4.445l2.178 3.356a107 107 0 0 1 7.155-4.287zm-7.314 4.381a.38.38 0 0 1-.3.049l-.735 3.933a4.38 4.38 0 0 0 2.998-.497zm-.3.049q-.037-.007-.04-.01-.004-.001 0 0l-.009-.007a.4.4 0 0 1-.044-.057l-3.322 2.229c.63.938 1.55 1.567 2.68 1.778zm-.178-.191-.013-.018.005.014.008.037v.004q-.001-.004.01-.06l-3.894-.914c-.283 1.205-.048 2.402.733 3.401zm.022-.077c.03-.14.061-.183.056-.176l-.021.024-.024.018-1.963-3.485c-1.117.629-1.731 1.673-1.966 2.812zm.133-.208a107 107 0 0 1 7.35-4.471l-1.93-3.503a111 111 0 0 0-7.626 4.637zm7.369-4.481q3.579-2.022 6.768-3.366l-1.554-3.685q-3.435 1.448-7.182 3.569zm6.79-3.375c5.74-2.503 10.358-3.447 13.95-3.091l.394-3.98c-4.553-.451-9.9.77-15.942 3.404zm13.966-3.089c.572.052.924.27 1.226.76l3.405-2.1c-.963-1.561-2.442-2.477-4.268-2.644zm1.226.76c.261.423.403 1.047.092 2.112l3.839 1.123c.541-1.849.477-3.708-.526-5.335zm.092 2.112a44 44 0 0 1-1.558 4.383l3.698 1.525a48 48 0 0 0 1.699-4.785zm-1.62 4.555-.015.04-.06.14 3.646 1.645c.092-.202.183-.424.251-.645zm-.075.18a7 7 0 0 0-.301.807l3.822 1.18q.073-.231.125-.342zm2.349 3.256c1.212-.482 2.907-1.305 5.045-2.435l-1.868-3.537c-2.112 1.116-3.65 1.855-4.654 2.255zm5.045-2.435q3.23-1.706 8.804-4.869l-1.974-3.479q-5.551 3.15-8.698 4.811zm8.798-4.866q.018-.008.005-.003l-.033.006q-.018 0-.008.001a.3.3 0 0 1 .071.019l1.316-3.777c-1.099-.383-2.259-.325-3.314.269zm.236.081a.3.3 0 0 1 .073.024q.012.006.005.002l-.004-.004q.004.002.025.041l3.537-1.868c-.578-1.094-1.536-1.81-2.722-2.089zm.207.243.015.027q.001.002 0 0v-.001l.001.005v.02a1 1 0 0 1-.016.103l3.894.914c.266-1.136.104-2.289-.572-3.296zm.015.092a.14.14 0 0 1-.03.06.7.7 0 0 1-.203.158l2.027 3.448c.986-.579 1.753-1.453 2.069-2.629zm-.176.186q-3.247 1.768-5.929 3.213l1.896 3.522a1300 1300 0 0 0 5.947-3.223zm-5.929 3.213a142 142 0 0 1-4.757 2.46l1.76 3.591a145 145 0 0 0 4.893-2.529zm-4.757 2.46c-1.891.926-3.304 1.583-4.257 1.984l1.55 3.688c1.063-.447 2.558-1.145 4.467-2.081zm-4.173 1.951c-.987.363-1.627.542-1.986.602l.654 3.946c.741-.123 1.667-.409 2.713-.794zm41.493-4.731.314-1.975-.113-.018-.114-.005zm-2.31-1.389-1.752.965.029.052.031.05zm-.247-2.886-1.922-.553-.011.038-.01.038zm1.365-3.847-1.823-.823-.015.033-.014.034zm.601-1.487-1.86-.734-.012.031-.011.031zm.526-1.473-1.823-.823-.051.114-.037.119zm.163-.413 1.911.59.042-.136.022-.14zm.088-.399 1.911.59.799-2.588-2.708-.002zm-5.273.719.427 1.954.023-.005.023-.005zm-6.412 2.219.806 1.83.008-.003.008-.004zm-6.612 3.33.955 1.756.01-.005.011-.006zm-7.289 4.366.982 1.742.055-.03.052-.034zm-1.649.273-.367 1.966zm-1.386-.926 1.661-1.114-.041-.06-.045-.057zm-.361-1.712 1.947.457.007-.026.005-.028zm.989-1.473.981 1.743.062-.035.059-.04zm7.488-4.554.965 1.752.009-.005.01-.006zm6.975-3.467.777 1.843.011-.004.011-.005zm14.946-3.247-.197 1.99.008.001.007.001zm2.747 1.702 1.703-1.05zm.309 3.723-1.919-.561zm-1.628 4.584-1.849-.762-.035.084-.027.088zm-.376.987-1.911-.59-1.232 3.991 3.882-1.542zm4.85-2.345.934 1.769zm8.75-4.839-.981-1.743-.006.003zm1.675-.124-.658 1.889.099.034.102.024zm1.411 1.076-1.769.934.049.093.059.087zm.285 1.724 1.932.519.008-.03.007-.031zm-1.15 1.424.957 1.756.028-.016.028-.016zm-5.938 3.218.948 1.761zm-4.825 2.494.88 1.796zm-4.363 2.033.691 1.877.043-.016.041-.017zm-2.676-1.276c-.16.027-.276.023-.359.01l-.627 3.95c.55.088 1.1.076 1.64-.013zm-.586-.013c-.281-.012-.472-.089-.705-.458l-3.384 2.134c.882 1.398 2.231 2.247 3.916 2.32zm-.645-.356c-.139-.252-.246-.673-.057-1.445l-3.885-.953c-.362 1.476-.304 2.98.438 4.328zm-.077-1.368q.45-1.569 1.295-3.645l-3.704-1.511c-.603 1.479-1.085 2.831-1.435 4.05zm1.266-3.578q.37-.82.662-1.636l-3.767-1.345q-.235.657-.541 1.336zm.638-1.574q.348-.877.577-1.619l-3.822-1.179q-.17.557-.475 1.329zm.49-1.386c.091-.202.182-.424.25-.645l-3.822-1.18-.015.04-.06.14zm.314-.921.019-.103.005-.02-3.822-1.18c-.07.227-.118.459-.152.676zm-1.885-2.713c-1.743-.002-3.665.268-5.749.776l.947 3.887c1.866-.455 3.459-.665 4.798-.663zm-5.703.766c-2.102.46-4.373 1.251-6.806 2.348l1.644 3.647c2.25-1.015 4.253-1.702 6.017-2.088zm-6.79 2.341q-3.19 1.405-6.782 3.415l1.952 3.491q3.457-1.932 6.442-3.245zm-6.762 3.404a112 112 0 0 0-7.421 4.445l2.177 3.356a108 108 0 0 1 7.155-4.288zm-7.314 4.38a.38.38 0 0 1-.301.05l-.734 3.932a4.37 4.37 0 0 0 2.998-.497zm-.301.05q-.036-.007-.04-.01-.004-.001 0 0l-.008-.008a.4.4 0 0 1-.044-.056l-3.322 2.229c.63.938 1.55 1.566 2.68 1.777zm-.178-.191-.013-.019.006.014.005.021.003.017v.004q-.002-.003.01-.061l-3.894-.914c-.283 1.206-.048 2.403.732 3.401zm.023-.078c.029-.139.061-.182.056-.175l-.021.023-.024.019-1.963-3.486c-1.117.63-1.731 1.673-1.966 2.813zm.132-.208a107 107 0 0 1 7.351-4.47l-1.93-3.503a111 111 0 0 0-7.626 4.637zm7.37-4.481q3.578-2.02 6.768-3.365l-1.554-3.686q-3.436 1.45-7.182 3.569zm6.79-3.374c5.74-2.503 10.358-3.447 13.95-3.091l.394-3.98c-4.553-.451-9.9.77-15.942 3.404zm13.965-3.089c.573.052.925.27 1.227.759l3.405-2.099c-.963-1.561-2.442-2.477-4.268-2.644zm1.227.759c.261.424.403 1.047.092 2.113l3.839 1.123c.54-1.849.477-3.708-.526-5.335zm.092 2.113a44 44 0 0 1-1.558 4.383l3.698 1.525a48 48 0 0 0 1.699-4.785zm-1.62 4.555-.015.04-.06.14 3.646 1.645c.091-.203.183-.424.251-.645zm-.075.18a7 7 0 0 0-.301.807l3.822 1.18q.073-.231.125-.342zm2.349 3.256c1.212-.482 2.907-1.306 5.045-2.435l-1.868-3.537c-2.112 1.115-3.651 1.855-4.655 2.254zm5.045-2.435q3.229-1.706 8.803-4.869l-1.974-3.479c-3.702 2.1-6.598 3.702-8.697 4.811zm8.798-4.866q.018-.009.004-.003l-.033.006q-.017 0-.007.001a.4.4 0 0 1 .071.019l1.315-3.778c-1.098-.382-2.258-.324-3.313.27zm.236.081q.06.016.073.023t.005.002l-.005-.003a.2.2 0 0 1 .026.041l3.537-1.868c-.578-1.094-1.536-1.81-2.722-2.089zm.207.243.015.027v-.002.026a.5.5 0 0 1-.016.102l3.894.915c.267-1.137.104-2.289-.572-3.296zm.015.092a.14.14 0 0 1-.031.06.7.7 0 0 1-.202.158l2.027 3.448c.986-.58 1.753-1.453 2.069-2.629zm-.176.186q-3.247 1.768-5.929 3.213l1.896 3.522q2.692-1.45 5.947-3.223zm-5.929 3.213a141 141 0 0 1-4.757 2.459l1.76 3.592a146 146 0 0 0 4.893-2.529zm-4.757 2.459c-1.891.927-3.304 1.584-4.258 1.985l1.55 3.688c1.063-.447 2.559-1.145 4.468-2.081zm-4.173 1.952c-.987.363-1.627.542-1.986.601l.654 3.947c.741-.123 1.667-.409 2.713-.794zm25.287-3.509.313-1.975-.075-.012-.077-.006zm-1.874-.614-1.46 1.367.089.095.102.083zm-.774-.95-1.781.91.033.064.038.062zm-.184-3.436 1.901.622.005-.016.005-.016zm1.703-4.134-1.775-.923-.005.011-.006.011zm.614-1.412-1.861-.734-.012.031-.011.031zm.538-1.399-1.626-1.164-.156.218-.093.251zm.175-.337 1.823.823 2.397-5.314-5.154 2.723zm-1.05.637-1.1-1.671-.038.025-.037.027zm-1.275 1.135 1.308 1.513.06-.052.057-.057zm-2.489 2.647 1.527 1.291.018-.021.018-.022zm-2.627 3.209 1.488 1.336.041-.045.037-.048zm-.713.811-1.514-1.306-.059.068-.053.074zm-.625.874 1.555 1.257.037-.045.034-.048zm-1.475.861.174 1.992.077-.007.076-.012zm-1.712-.564 1.337-1.488-.083-.074-.09-.064zm-.86-1.475 1.993-.162-.001-.013zm.489-1.699 1.555 1.258.037-.046.034-.048zm.7-.886 1.514 1.306.06-.069.052-.073zm.638-.799 1.488 1.336.041-.046.038-.048zm4.065-4.757 1.466 1.36.014-.015.013-.014zm4.101-3.607-1.084-1.681zm4.287-1.096-.228 1.987.047.006.047.003zm1.973.752-1.429 1.399.082.083.09.073zm.874 1.088-1.907.602.075.236.13.211zm.284 3.573 1.891.652.005-.016.005-.016zm-1.816 4.384 1.627 1.164.106-.148.077-.165zm-.288.587-1.86-.735-.028.072-.023.073zm-.275.662-1.775-.922-3.289 6.328 6.1-3.696zm2.738-1.609.999 1.732zm4.075-2.371-.893-1.789-.059.03-.058.033zm1.824-.148-.657 1.889.068.024.071.019zm1.336 1.088-1.768.935.049.092.058.088zm.211 1.737-1.911-.59-.011.036-.009.036zm-1.001 1.399.951 1.759.084-.045.079-.053zm-4.1 2.22-.954-1.758zm-3.1 1.746-1.02-1.72-.008.005-.008.005zm-1.263.749.857 1.807.073-.034.069-.04zm-.925.461.857 1.808.039-.019.038-.02zm-.85.449.708 1.871.172-.065.157-.095zm-1.064-1.773-.069.009-.018.002h-.006.007l.022.001q.029 0 .092.01l-.627 3.95c.457.073.899.032 1.253-.026zm-.124.004a2.8 2.8 0 0 1-.632-.112c-.127-.041-.154-.071-.133-.054l-2.539 3.09c.861.708 1.95.979 2.981 1.063zm-.575.013a9 9 0 0 1-.383-.434 3 3 0 0 1-.131-.173l-.009-.014-3.421 2.073c.253.419.629.859 1.024 1.281zm-.453-.494c-.258-.507-.33-1.092-.064-1.904l-3.802-1.245c-.552 1.687-.501 3.392.304 4.969zm-.054-1.936c.362-1.174.884-2.448 1.578-3.824l-3.572-1.801c-.775 1.538-1.388 3.02-1.828 4.445zm1.567-3.802q.414-.8.722-1.661l-3.767-1.345a9 9 0 0 1-.505 1.161zm.699-1.599q.33-.837.553-1.439l-3.75-1.39q-.203.548-.524 1.36zm.304-.97c.171-.239.301-.52.372-.678l-3.646-1.645-.034.073-.018.036q-.002.004.001 0l.008-.015.022-.036.043-.063zm-2.385-3.269c-.362.191-.772.442-1.216.734l2.2 3.341c.389-.256.68-.43.884-.538zm-1.291.786c-.489.355-1 .817-1.525 1.351l2.85 2.807c.441-.449.781-.744 1.025-.921zm-1.408 1.241c-.923.798-1.837 1.775-2.744 2.912l3.126 2.496c.794-.994 1.539-1.781 2.234-2.382zm-2.708 2.868a137 137 0 0 0-2.666 3.257l3.132 2.487a133 133 0 0 1 2.588-3.161zm-2.588 3.164q-.341.38-.739.842l3.029 2.612q.377-.436.686-.781zm-.851.984-.626.874 3.253 2.328.626-.874zm-.554.781a.34.34 0 0 1-.247.145l.654 3.946a4.33 4.33 0 0 0 2.703-1.577zm-.095.125c-.086.008-.118-.004-.121-.004-.002-.001-.027-.008-.079-.055l-2.673 2.976a4.17 4.17 0 0 0 3.222 1.068zm-.373-.197q-.048-.037-.052-.044t.007.012l.009.017.006.015q.003.013-.001-.011l-3.987.324c.1 1.231.719 2.244 1.69 2.939zm-.032-.024c-.017-.189.022-.23.052-.266l-3.111-2.515c-.737.912-1.025 2.003-.926 3.131zm.123-.36q.254-.355.588-.744l-3.028-2.613a15 15 0 0 0-.813 1.029zm.7-.886q.255-.356.5-.627l-2.976-2.673q-.406.453-.776.972zm.579-.721a79 79 0 0 1 3.964-4.639l-2.932-2.72a83 83 0 0 0-4.166 4.874zm3.991-4.668c1.248-1.401 2.481-2.476 3.693-3.258l-2.169-3.361c-1.572 1.015-3.073 2.345-4.51 3.957zm3.693-3.258c1.054-.68 2.025-.898 2.974-.789l.456-3.974c-1.982-.227-3.869.286-5.599 1.402zm3.068-.78c.602.04.712.19.678.155l2.858-2.799c-.899-.918-2.104-1.269-3.268-1.347zm.85.311c.158.128.239.215.272.257.035.043-.009.002-.048-.122l3.814-1.205c-.283-.897-.934-1.564-1.523-2.041zm.429.582c.265.431.382.991.085 1.904l3.802 1.24c.588-1.801.516-3.624-.483-5.243zm.095 1.872c-.422 1.223-.997 2.617-1.735 4.185l3.62 1.702q1.175-2.495 1.897-4.583zm-1.551 3.872c-.234.327-.402.714-.522 1.016l3.721 1.47c.041-.104.071-.17.088-.207l.009-.016q-.004.008-.043.065zm-.573 1.161a2 2 0 0 1-.139.33l3.55 1.844q.25-.478.412-.994zm2.672 2.962q1.024-.62 2.701-1.587l-1.998-3.465a153 153 0 0 0-2.775 1.631zm2.701-1.587q1.695-.977 4.086-2.376l-2.02-3.453q-2.385 1.395-4.064 2.364zm3.969-2.313a.6.6 0 0 1 .188-.064.2.2 0 0 1 .086.015l1.315-3.778c-1.155-.402-2.321-.278-3.375.248zm.413-.006.033.01.009.01c.008.011.024.032.044.071l3.537-1.869c-.546-1.032-1.43-1.775-2.586-2.085zm.193.271q.006.009-.004-.012a.2.2 0 0 1-.012-.046q0-.022-.001-.004c-.002.012-.006.043-.022.094l3.822 1.18c.356-1.154.256-2.372-.461-3.441zm-.059.104a.4.4 0 0 1-.184.256l2.228 3.322a4.38 4.38 0 0 0 1.819-2.541zm-.02.157q-2.265 1.224-4.104 2.222l1.909 3.516q1.834-.997 4.096-2.219zm-4.104 2.222a99 99 0 0 0-3.166 1.784l2.04 3.441a93 93 0 0 1 3.035-1.709zm-3.182 1.794q-.687.415-1.226.726l1.998 3.466q.586-.339 1.3-.771zm-1.083.652q-.534.252-1.003.5l1.868 3.537q.382-.202.848-.423zm-.925.461a12 12 0 0 0-1.03.546l2.073 3.421a8 8 0 0 1 .67-.352zm-.701.386a2 2 0 0 1-.357.097l.654 3.946a6 6 0 0 0 1.118-.302zm16.651 5.853.227-1.987-.135-.015-.137.003zm-1.075.024-.213 1.989.129.014.129-.003zm-2.135-1.264 1.676-1.09-.005-.009-.006-.009zm-.597-3.599-1.972-.334-.003.021-.003.021zm1.48-5.946-1.911-.589-.003.008-.002.009zm.376-1.449-1.911-.589-.024.079-.018.081zm.439-1.536 1.936.503 1.213-4.674-4.163 2.447zm-1.888 1.623 1.476 1.349.006-.006.006-.007zm-1.889 2.084 1.4 1.429.045-.044.043-.048zm-1.575.724.024 2 .069-.001.069-.006zm-1.711-.564-1.429 1.399.081.083.091.073zm-.648-1.587 2 .001v-.082l-.007-.081zm.489-1.699-1.413-1.416-.117.117-.097.135zm1.901-2.01-1.446-1.382-.021.022-.021.023zm2.15-1.897 1.175 1.618.008-.005.008-.006zm5.487-1.757-.243 1.985.1.012.101.003zm2.048 1.201-1.646 1.136.013.02.014.019zm.422 3.012-1.962-.387-.007.037-.006.036zm-1.292 5.221-1.916-.571-.017.057-.014.057zm-.526 1.936-1.911-.589-.02.065-.016.067zm-.464 1.849-1.932-.519-.047.176-.015.182zm-.138.562-1.823-.822-.11.244-.042.265zm-.075.475-1.976-.314-.507 3.196 3.085-.975zm4.312-2.332 1.108 1.665.009-.007.009-.006zm7.328-6.916-1.474-1.351-.006.006-.005.006zm4.328-5.031 1.563 1.248.011-.014.011-.015zm3.027-4.045-1.626-1.164zm1.126-1.574 1.626 1.164.045-.062.04-.066zm2.063-1.035-.243 1.985.16.02.162-.006zm1.061.364-1.306 1.514.069.059.073.053zm.724.65 1.619-1.175-.045-.062-.05-.059zm.485 2.462-1.98-.283-.005.035-.003.035zm-.916 4.697 1.929.53.01-.038.009-.039zm-.577 2.098-1.928-.53-.017.063-.014.064zm-.451 1.924-1.932-.519-.047.176-.015.182zm-.063.55-1.975-.314-.051.321.053.32zm-.025.312-1.911-.59-1.147 3.714 3.688-1.226zm2.8-1.697 1.316 1.506.01-.008.009-.009zm2.764-2.846-1.496-1.328-.016.018-.015.019zm2.264-2.609 1.532 1.285.015-.018.016-.019zm1.55-.873.162 1.993zm1.698.489 1.337-1.488-.083-.074-.09-.065zm.799 1.562-1.994.162.007.083.014.082zm-.489 1.699 1.542 1.273.011-.013.01-.012zm-4.165 4.619-1.425-1.403-.01.01-.01.011zm-4.426 3.507.95 1.76.016-.009.015-.009zm-4.836 1.033-.492 1.938.17.043.174.013zm-1.973-1.214-1.685 1.078.048.075.054.07zm-.686-2.275-1.999-.021-.001.058.003.057zm.378-3.298 1.967.361-3.536-1.601zm-1.488 1.71-1.446-1.382-.029.031-.028.031zm-1.551 1.798 1.48 1.346.022-.025.022-.026zm-15.093 8.871q-.237.042-.52.01l-.455 3.974a5.8 5.8 0 0 0 1.629-.038zm-.792-.002-1.075.024.09 3.999 1.074-.024zm-.817.035c-.391-.042-.542-.168-.672-.366l-3.353 2.181c.836 1.285 2.108 2.002 3.599 2.162zm-.683-.384c-.26-.389-.454-1.044-.283-2.198l-3.957-.585c-.265 1.794-.062 3.539.91 4.999zm-.29-2.156c.24-1.418.708-3.312 1.424-5.708l-3.832-1.145c-.738 2.467-1.256 4.537-1.536 6.184zm1.419-5.691q.229-.744.419-1.609l-3.907-.859q-.163.734-.334 1.289zm.376-1.449q.263-.849.464-1.623l-3.872-1.005q-.175.674-.414 1.449zm-2.486-3.85c-.838.493-1.623 1.187-2.362 2.01l2.976 2.673c.561-.625 1.035-1.012 1.413-1.235zm-2.35 1.997q-.92 1.006-1.901 2.098l2.976 2.673q.97-1.08 1.877-2.072zm-1.812 2.006a.5.5 0 0 1-.338.158l.324 3.987a4.48 4.48 0 0 0 2.813-1.288zm-.199.152c-.247.003-.352-.056-.43-.119l-2.515 3.11c.87.704 1.906 1.021 2.992 1.009zm-.259.037a.3.3 0 0 1-.064-.085c-.002-.006-.013-.033-.013-.102l-4-.003a4.18 4.18 0 0 0 1.219 2.988zm-.084-.35c-.009-.109.005-.21.122-.373l-3.253-2.328c-.633.885-.946 1.917-.856 3.025zm-.091-.122a53 53 0 0 0 1.976-2.089l-2.976-2.673a49 49 0 0 1-1.826 1.931zm1.933-2.043a14 14 0 0 1 1.88-1.661l-2.349-3.237a18 18 0 0 0-2.422 2.134zm1.896-1.672c1.591-1.179 2.918-1.518 4.053-1.379l.486-3.97c-2.429-.298-4.761.535-6.92 2.135zm4.254-1.364c.077.001.204-.011.444.337l3.292-2.272c-.841-1.218-2.079-2.031-3.652-2.065zm.471.376c.086.118.27.481.079 1.45l3.924.773c.312-1.579.214-3.223-.765-4.573zm.066 1.523c-.181 1.136-.582 2.778-1.233 4.964l3.833 1.142c.669-2.244 1.129-4.083 1.35-5.478zm-1.264 5.078a27 27 0 0 1-.49 1.804l3.822 1.179q.32-1.037.562-2.069zm-.526 1.936a57 57 0 0 1-.449 1.787l3.863 1.038q.248-.92.48-1.911zm-.511 2.145c-.001.012.001-.029.033-.099l3.646 1.645c.182-.403.276-.819.308-1.223zm-.119.41-.076.474 3.951.628.075-.475zm2.502 2.695c1.308-.413 2.941-1.325 4.818-2.574l-2.216-3.331c-1.823 1.214-3.066 1.857-3.807 2.091zm4.836-2.587c2.096-1.428 4.668-3.879 7.688-7.229l-2.971-2.678c-2.968 3.292-5.281 5.451-6.969 6.602zm7.677-7.216a101 101 0 0 0 4.416-5.135l-3.126-2.496a96 96 0 0 1-4.239 4.928zm4.438-5.164a156 156 0 0 0 3.069-4.1l-3.253-2.328a154 154 0 0 1-2.987 3.99zm3.069-4.1c.093-.132-.059.082.034-.049l.035-.048.067-.094.065-.09c.021-.03-.014.018.008-.012l.008-.011c.042-.059-.027.037.015-.022l.031-.043.061-.085.058-.081.007-.01.007-.01c.038-.053-.023.033.015-.02l.027-.038.004-.005.003-.005c.018-.025-.011.016.007-.009l.013-.019.027-.038.026-.036.013-.018.013-.018.003-.004.003-.005.006-.008.004-.005.003-.004.006-.009.024-.034.003-.004.003-.004.006-.009.006-.008.003-.004.003-.004.024-.033.022-.032.003-.004.003-.004.003-.004.003-.004.011-.015.005-.008c.007-.01-.002.003.006-.007l.002-.004.003-.004.003-.004.002-.003.022-.03.002-.004.003-.003.005-.007.01-.015.02-.028.039-.054.004-.006.005-.007.002-.003.005-.006.002-.003.018-.025.034-.048c.083-.116-.05.07.032-.044l.057-.08.088-.123.001-.002.001-.001.002-.003.001-.002.002-.001.001-.002.001-.001.008-.011.014-.02.022-.031.002-.003.001-.001.001-.001v-.001l.001-.001.001-.001v-.001l.001-.001.001-.001.003-.004.001-.002.001-.001v-.001h.001v-.001l.001-.001.001-.002.001-.001v-.001l-1.626-1.164-1.626-1.164v.001h-.001v.001l-.004.005-.013.018-.053.074-.211.295-.158.221-.093.129-.012.017-.006.009-.003.004-.003.004-.012.018-.004.004-.003.004-.003.005-.003.004-.003.005-.003.004-.004.005-.003.004-.006.009-.003.004-.004.005-.003.004-.003.005-.003.005-.004.004-.006.009-.003.005-.004.004-.054.076-.003.005-.003.004-.004.005-.003.005-.004.005-.003.005-.007.01-.007.009-.007.01-.015.02-.118.166-.128.178-.004.006-.004.006-.008.011-.005.006-.004.006-.004.006-.004.006-.004.006-.005.005-.004.006-.004.006-.008.012-.009.012-.069.097zm1.21-1.702a.7.7 0 0 1 .088-.119c.008-.008.001.001-.023.013-.025.012-.044.016-.048.017-.002 0 .026-.005.092.003l.486-3.97c-.77-.094-1.573-.003-2.325.375-.746.374-1.297.957-1.692 1.61zm.431-.072a.4.4 0 0 1-.155-.028.5.5 0 0 1-.169-.093l2.613-3.029a3.48 3.48 0 0 0-2.448-.847zm-.182-.009c.186.133.299.242.365.32l3.047-2.592a6 6 0 0 0-1.084-.981zm.27.199c.083.115.214.373.123 1.004l3.96.565c.195-1.367.002-2.75-.846-3.919zm.115 1.074c-.087.807-.366 2.267-.876 4.456l3.896.907c.51-2.191.842-3.862.957-4.937zm-.857 4.38-.001.004-.001.004-.001.004-.001.004-.001.004-.001.004-.001.005-.002.004-.001.004-.001.004-.001.004-.001.004-.001.004-.001.004-.001.004-.002.004-.001.005-.001.004-.001.004-.001.004-.001.004-.001.004-.001.004-.002.004-.001.004-.001.004-.001.005-.001.004-.001.004-.001.004-.001.004-.002.004-.001.004-.001.004-.001.004-.001.004-.001.005-.001.004-.001.004-.002.004-.001.004-.001.004-.001.004-.001.004-.001.004-.001.004-.001.005-.002.004-.001.004-.001.004-.001.004-.001.004-.001.004-.001.004-.001.004-.002.004-.001.005-.001.004-.001.004-.001.004-.001.004-.001.004-.001.004-.002.004-.001.004-.001.004-.001.004-.001.005-.001.004-.001.004-.001.004-.002.004-.001.004-.001.004-.001.004-.001.004-.001.004-.001.005-.001.004-.002.004-.001.004-.001.004-.001.004-.001.004-.001.004-.001.004-.001.004-.002.005-.001.004-.001.004-.001.004-.001.004-.001.004-.001.004-.002.004-.001.004-.001.004-.001.005-.001.004-.001.004-.001.004-.001.004-.002.004-.001.004-.001.004-.001.004-.001.004-.001.005-.001.004-.001.004-.002.004-.001.004-.001.004-.001.004-.001.004-.001.004-.001.004-.001.005-.002.004-.001.004-.001.004-.001.004-.001.004-.001.004-.001.004-.001.004-.002.004-.001.005-.001.004-.001.004-.001.004-.001.004-.001.004-.001.004-.002.004-.001.004-.001.004-.001.005-.001.004-.001.004-.001.004-.001.004-.002.004-.001.004-.001.004-.001.004-.001.004-.001.004-.001.005-.001.004-.002.004-.001.004-.001.004-.001.004-.001.004-.001.004-.001.004-.001.004-.002.005-.001.004-.001.004-.001.004-.001.004-.001.004-.001.004-.001.004-.002.004-.001.004-.001.005-.001.004-.001.004-.001.004-.001.004-.001.004-.002.004-.001.004-.001.004-.001.004-.001.005-.001.004-.001.004-.001.004-.002.004-.001.004-.001.004-.001.004-.001.004-.001.004-.001.005-.002.004-.001.004-.001.004-.001.004-.001.004-.001.004-.001.004-.001.004-.002.004-.001.005-.001.004-.001.004-.001.004-.001.004-.001.004-.001.004-.002.004-.001.004-.001.004-.001.005-.001.004-.001.004-.001.004-.001.004-.002.004-.001.004-.001.004-.001.004-.001.004-.001.004-.001.005-.001.004-.002.004-.001.004-.001.004-.001.004-.001.004-.001.004-.001.004-.001.004-.002.005-.001.004-.001.004-.001.004-.001.004-.001.004-.001.004-.001.004-.002.004-.001.004-.001.005-.001.004-.001.004-.001.004-.001.004-.001.004-.002.004-.001.004-.001.004-.001.004-.001.005-.001.004-.001.004-.001.004-.002.004-.001.004-.001.004-.001.004-.001.004-.001.004-.001.005-.001.004-.002.004-.001.004-.001.004-.001.004-.001.004-.001.004-.001.004-.001.004-.002.005-.001.004-.001.004-.001.004-.001.004-.001.004-.001.004-.001.004-.002.004-.001.004-.001.005-.001.004-.001.004-.001.004-.001.004-.002.004-.001.004-.001.004-.001.004-.001.004-.001.004-.001.005-.001.004-.002.004-.001.004-.001.004-.001.004-.001.004-.001.004-.001.004-.001.004-.002.005-.001.004-.001.004-.001.004-.001.004-.001.004-.001.004-.001.004-.002.004-.001.004-.001.005-.001.004-.001.004-.001.004-.001.004-.001.004-.002.004-.001.004-.001.004-.001.004-.001.005-.001.004-.001.004-.001.004-.002.004-.001.004-.001.004-.001.004-.001.004-.001.004-.001.005-.001.004-.002.004-.001.004-.001.004-.001.004-.001.004-.001.004-.001.004-.001.004-.002.005-.001.004-.001.004-.001.004-.001.004-.001.004-.001.004-.001.004-.002.004-.001.004-.001.005-.001.004-.001.004-.001.004-.001.004-.001.004-.002.004-.001.004-.001.004-.001.004-.001.005-.001.004-.001.004-.001.004-.002.004-.001.004-.001.004-.001.004-.001.004-.001.004-.001.004-.001.005-.002.004-.001.004-.001.004-.001.004-.001.004-.001.004-.001.004-.001.004-.002.004-.001.005-.001.004-.001.004-.001.004-.001.004-.001.004-.002.004-.001.004-.001.004-.001.004-.001.005-.001.004-.001.004-.001.004-.002.004-.001.004-.001.004-.001.004-.001.004-.001.004-.001.005-.001.004-.002.004-.001.004-.001.004-.001.004-.001.004-.001.004-.001.004-.001.004-.002.005-.001.004-.001.004-.001.004-.001.004-.001.004-.001.004-.001.004-.002.004-.001.004-.001.005-.001.004-.001.004-.001.004-.001.004-.001.004-.002.004-.001.004-.001.004-.001.004-.001.005-.001.004-.001.004-.001.004-.002.004-.001.004-.001.004-.001.004-.001.004-.001.004-.001.004-.001.005-.002.004-.001.004-.001.004-.001.004-.001.004-.001.004-.001.004-.001.004-.002.004-.001.005-.001.004-.001.004-.001.004-.001.004-.001.004-.001.004-.002.004-.001.004-.001.004-.001.005-.001.004-.001.004-.001.004-.001.004-.002.004-.001.004-.001.004-.001.004-.001.004-.001.005-.001.004-.001.004-.002.004-.001.004-.001.004-.001.004-.001.004-.001.004-.001.004-.002.005-.001.004-.001.004-.001.004-.001.004-.001.004-.001.004-.001.004-.002.004-.001.004-.001.005-.001.004-.001.004-.001.004-.001.004-.001.004-.002.004-.001.004-.001.004-.001.004-.001.005-.001.004-.001.004-.001.004-.002.004-.001.004-.001.004-.001.004-.001.004-.001.004 3.857 1.06.001-.004.001-.004.001-.004.001-.004.001-.004.002-.004.001-.004.001-.005.001-.004.001-.004.001-.004.001-.004.001-.004.002-.004.001-.004.001-.004.001-.004.001-.004.001-.005.001-.004.002-.004.001-.004.001-.004.001-.004.001-.004.001-.004.001-.004.001-.004.002-.005.001-.004.001-.004.001-.004.001-.004.001-.004.001-.004.001-.004.002-.004.001-.004.001-.005.001-.004.001-.004.001-.004.001-.004.001-.004.002-.004.001-.004.001-.004.001-.004.001-.005.001-.004.001-.004.001-.004.002-.004.001-.004.001-.004.001-.004.001-.004.001-.004.001-.005.001-.004.002-.004.001-.004.001-.004.001-.004.001-.004.001-.004.001-.004.001-.004.002-.005.001-.004.001-.004.001-.004.001-.004.001-.004.001-.004.001-.004.002-.004.001-.004.001-.005.001-.004.001-.004.001-.004.001-.004.001-.004.002-.004.001-.004.001-.004.001-.004.001-.004.001-.005.001-.004.001-.004.002-.004.001-.004.001-.004.001-.004.001-.004.001-.004.001-.004.001-.005.002-.004.001-.004.001-.004.001-.004.001-.004.001-.004.001-.004.001-.004.002-.004.001-.005.001-.004.001-.004.001-.004.001-.004.001-.004.002-.004.001-.004.001-.004.001-.004.001-.005.001-.004.001-.004.001-.004.002-.004.001-.004.001-.004.001-.004.001-.004.001-.004.001-.005.001-.004.002-.004.001-.004.001-.004.001-.004.001-.004.001-.004.001-.004.001-.004.002-.005.001-.004.001-.004.001-.004.001-.004.001-.004.001-.004.001-.004.002-.004.001-.004.001-.005.001-.004.001-.004.001-.004.001-.004.001-.004.002-.004.001-.004.001-.004.001-.004.001-.005.001-.004.001-.004.001-.004.002-.004.001-.004.001-.004.001-.004.001-.004.001-.004.001-.004.001-.005.002-.004.001-.004.001-.004.001-.004.001-.004.001-.004.001-.004.001-.004.002-.004.001-.005.001-.004.001-.004.001-.004.001-.004.001-.004.001-.004.002-.004.001-.004.001-.004.001-.005.001-.004.001-.004.001-.004.001-.004.002-.004.001-.004.001-.004.001-.004.001-.004.001-.005.001-.004.001-.004.002-.004.001-.004.001-.004.001-.004.001-.004.001-.004.001-.004.002-.005.001-.004.001-.004.001-.004.001-.004.001-.004.001-.004.001-.004.002-.004.001-.004.001-.005.001-.004.001-.004.001-.004.001-.004.001-.004.002-.004.001-.004.001-.004.001-.004.001-.005.001-.004.001-.004.001-.004.002-.004.001-.004.001-.004.001-.004.001-.004.001-.004.001-.004.001-.005.002-.004.001-.004.001-.004.001-.004.001-.004.001-.004.001-.004.001-.004.002-.004.001-.005.001-.004.001-.004.001-.004.001-.004.001-.004.001-.004.002-.004.001-.004.001-.004.001-.005.001-.004.001-.004.001-.004.001-.004.002-.004.001-.004.001-.004.001-.004.001-.004.001-.005.001-.004.001-.004.002-.004.001-.004.001-.004.001-.004.001-.004.001-.004.001-.004.001-.005.002-.004.001-.004.001-.004.001-.004.001-.004.001-.004.001-.004.001-.004.002-.004.001-.005.001-.004.001-.004.001-.004.001-.004.001-.004.001-.004.002-.004.001-.004.001-.004.001-.005.001-.004.001-.004.001-.004.002-.004.001-.004.001-.004.001-.004.001-.004.001-.004.001-.005.001-.004.002-.004.001-.004.001-.004.001-.004.001-.004.001-.004.001-.004.001-.004.002-.004.001-.005.001-.004.001-.004.001-.004.001-.004.001-.004.001-.004.002-.004.001-.004.001-.004.001-.005.001-.004.001-.004.001-.004.001-.004.002-.004.001-.004.001-.004.001-.004.001-.004.001-.005.001-.004.001-.004.002-.004.001-.004.001-.004.001-.004.001-.004.001-.004.001-.004.001-.005.002-.004.001-.004.001-.004.001-.004.001-.004.001-.004.001-.004.001-.004.002-.004.001-.005.001-.004.001-.004.001-.004.001-.004.001-.004.001-.004.002-.004.001-.004.001-.004.001-.005.001-.004.001-.004.001-.004.001-.004.002-.004.001-.004.001-.004.001-.004.001-.004.001-.005.001-.004.001-.004.002-.004.001-.004.001-.004.001-.004.001-.004.001-.004.001-.004.001-.004.002-.005.001-.004.001-.004.001-.004.001-.004.001-.004.001-.004.001-.004.002-.004.001-.004.001-.005.001-.004.001-.004.001-.004.001-.004.002-.004.001-.004.001-.004.001-.004.001-.004.001-.005.001-.004.001-.004.002-.004.001-.004.001-.004.001-.004.001-.004.001-.004.001-.004.001-.005.002-.004.001-.004.001-.004.001-.004.001-.004.001-.004.001-.004.001-.004.002-.004.001-.005.001-.004.001-.004.001-.004.001-.004.001-.004.001-.004.002-.004.001-.004.001-.004.001-.005.001-.004.001-.004.001-.004.001-.004.002-.004.001-.004.001-.004.001-.004.001-.004.001-.005.001-.004.001-.004.002-.004.001-.004.001-.004.001-.004.001-.004.001-.004.001-.004.001-.004.002-.005.001-.004.001-.004.001-.004.001-.004.001-.004.001-.004.001-.004.002-.004.001-.004.001-.005.001-.004.001-.004.001-.004.001-.004.001-.004.002-.004.001-.004.001-.004.001-.004.001-.005.001-.004.001-.004.001-.004.002-.004.001-.004.001-.004.001-.004.001-.004.001-.004.001-.005.001-.004.002-.004.001-.004.001-.004.001-.004.001-.004.001-.004.001-.004.002-.004.001-.005.001-.004.001-.004.001-.004.001-.004.001-.004.001-.004.002-.004zm-.607 2.225a31 31 0 0 1-.424 1.808l3.863 1.038q.256-.953.479-2.04zm-.486 2.166a6 6 0 0 1-.044.397l3.95.627q.052-.333.081-.702zm-.042 1.038a1.3 1.3 0 0 1 .037-.605l3.822 1.18c.114-.37.16-.788.087-1.229zm2.578 1.883c1.238-.411 2.399-1.138 3.486-2.089l-2.633-3.011c-.796.696-1.502 1.101-2.114 1.304zm3.505-2.106a31 31 0 0 0 2.956-3.043l-3.054-2.583a27 27 0 0 1-2.572 2.648zm2.924-3.007a131 131 0 0 0 2.301-2.652l-3.065-2.57q-.875 1.044-2.227 2.566zm2.332-2.689a.5.5 0 0 1 .125-.123l.002-.001v-.001l.005-.001.017-.002-.324-3.987c-1.226.1-2.227.711-2.951 1.619zm.149-.128c.108-.009.209.005.372.122l2.328-3.253c-.885-.633-1.916-.946-3.024-.856zm.2-.016c.129.115.136.172.141.236l3.987-.324c-.094-1.152-.619-2.137-1.455-2.888zm.162.401.001.008.002-.013c.002-.007-.008.037-.082.129l3.126 2.496c.731-.916 1.103-2.044.899-3.274zm-.059.099a69 69 0 0 1-4.047 4.489l2.85 2.806a73 73 0 0 0 4.282-4.749zm-4.067 4.51c-1.284 1.342-2.606 2.382-3.963 3.146l1.963 3.485c1.744-.982 3.372-2.279 4.89-3.867zm-3.932 3.129a6.64 6.64 0 0 1-3.738.798l-.295 3.989a10.63 10.63 0 0 0 5.934-1.267zm-3.394.854c-.507-.129-.746-.322-.882-.499l-3.165 2.447c.779 1.007 1.855 1.623 3.064 1.929zm-.78-.353c-.205-.32-.345-.73-.372-1.291l-3.995.188c.055 1.172.371 2.279.998 3.259zm-.37-1.176c.008-.717.114-1.693.345-2.958l-3.934-.722c-.254 1.384-.4 2.606-.41 3.638zm-3.191-4.559a22 22 0 0 1-1.365 1.568l2.891 2.765a26 26 0 0 0 1.612-1.853zm-1.422 1.63q-.725.827-1.572 1.823l3.048 2.59a154 154 0 0 1 1.529-1.773zm-1.528 1.772c-2.944 3.238-5.574 5.687-7.892 7.389-2.336 1.716-4.233 2.582-5.721 2.828l.654 3.946c2.361-.391 4.85-1.652 7.435-3.55 2.605-1.913 5.433-4.568 8.484-7.921zm35.421-.812 1.053-1.7-.031-.02-.032-.018zm-1.085-2.363 1.97.344.059-.335-.056-.336zm.227-1.886-1.971-.339-.007.038-.005.039zm.703-4.123 1.972.335.008-.046.005-.046zm.315-2.286 1.975.314.004-.023.003-.023zm.239-1.811 1.984.254.509-3.981-3.485 1.99zm-4.638 2.694.974 1.747.02-.011.019-.011zm-5.776 3.269-.994-1.736-.007.004-.007.004zm-5.762 3.343.981 1.742.009-.005.009-.005zm-1.662.198-.59 1.911.035.011.036.01zm-1.499-1.138-1.742.981.022.041.025.039zm-.123-1.675 1.889.658.034-.099.024-.101zm1.063-1.485-.969-1.75-.046.026-.045.028zm6.563-3.63.967 1.751.016-.009.016-.01zm6.263-3.58.985 1.74.019-.01.018-.011zm4.7-2.782 1.014 1.724zm1.826-1.073-.708-1.871-.159.06-.147.087zm.737-.199.327 1.973.195-.033.186-.07zm.687-.037-.59 1.911.31.096.325-.008zm1.699.951-1.685 1.078.083.129.102.116zm.56 1.525-1.992.174.007.077.012.076zm.06 2.686 1.996.125.001-.013.001-.012zm-.239 2.274-1.981-.277-.006.042-.004.042zm-.39 2.761-1.97-.344-.016.091-.007.091zm-.063.549-1.975-.313zm-.063.55-1.993-.161-.37 4.568 3.601-2.836zm6.776-4.667 1.057 1.699.029-.019.028-.019zm1.65-.273-.519 1.932.101.027.104.016zm1.386.926-1.743.981.074.132.093.119zm.361 1.712-1.947-.457zm-.989 1.473 1.1 1.671.007-.005.007-.005zm-5.601 3.856-1.175-1.619-.009.007-.009.007zm-3.838 2.87-1.205-1.596zm-1.438 1.086-1.205-1.596-.17.128-.139.161zm-1.389-1.412a.5.5 0 0 1-.177.008.1.1 0 0 1-.03-.011l-2.106 3.4c.923.572 1.955.717 2.967.549zm-.27-.041a.7.7 0 0 1-.135-.095c-.007-.008.001-.001.011.02.009.02.006.025.004.002a.8.8 0 0 1 .015-.208l-3.94-.687c-.145.832-.101 1.72.286 2.562.388.846 1.038 1.459 1.779 1.881zm-.102-.952a2 2 0 0 1 .026.347c0 .037-.002.061-.002.064l.003-.032q.009-.094.036-.322.055-.454.174-1.354l-3.966-.524q-.12.91-.179 1.401-.03.243-.046.404a6 6 0 0 0-.019.291c0 .007-.006.177.027.379zm.225-1.22q.314-1.827.704-4.127l-3.944-.669q-.389 2.297-.702 4.118zm.717-4.219q.161-1.313.305-2.215l-3.951-.627a69 69 0 0 0-.324 2.356zm.312-2.261q.138-1.03.241-1.825l-3.968-.508q-.1.778-.237 1.798zm-2.735-3.816q-1.915 1.094-4.66 2.707l2.027 3.449a420 420 0 0 1 4.617-2.682zm-4.621 2.685a596 596 0 0 0-5.795 3.279l1.989 3.471a571 571 0 0 1 5.755-3.257zm-5.809 3.287a1200 1200 0 0 1-5.753 3.338l1.998 3.465q2.817-1.624 5.771-3.348zm-5.736 3.328q-.036.02-.046.022l-.013.003s-.029.004-.103-.015l-1.037 3.863a4.14 4.14 0 0 0 3.162-.388zm-.09.03c-.207-.064-.307-.15-.393-.288l-3.391 2.122a4.6 4.6 0 0 0 2.604 1.988zm-.346-.209q-.009-.018-.003-.004l.006.033q0 .018.001.007a.4.4 0 0 1 .019-.071l-3.778-1.315c-.382 1.098-.325 2.258.27 3.313zm.081-.235c.03-.128.066-.178.177-.248l-2.121-3.391a4.3 4.3 0 0 0-1.95 2.724zm.085-.194q3.174-1.758 6.561-3.628l-1.934-3.502-6.565 3.631zm6.593-3.647a917 917 0 0 1 6.249-3.572l-1.97-3.481a919 919 0 0 0-6.277 3.588zm6.286-3.593q2.873-1.708 4.692-2.777l-2.027-3.448q-1.832 1.076-4.709 2.786zm4.692-2.777.057-.033.055-.033.109-.064.053-.031.026-.016.026-.015.051-.03.013-.007.006-.004.007-.004.006-.004.006-.003.006-.004.007-.004.37-.217.084-.05.01-.006.006-.003.005-.003.02-.012c.019-.011-.009.006.01-.005l.005-.003.005-.003.005-.003.005-.003.009-.006.077-.045.073-.043.136-.08.121-.071.107-.063.024-.014.024-.014.011-.007.012-.006.021-.013.143-.084.004-.002.003-.002.007-.004.013-.008.023-.013.036-.021v-.001h.001l.002-.001.002-.001v-.001h.001l.006-.004.009-.005h.001v-.001h.001l.001-.001h.001l.001-.001h.001v-.001h.001l-1.013-1.724-1.014-1.724h-.001l-.001.001-.005.003-.021.012-.016.01-.01.005-.005.003-.002.002-.002.001h-.001l-.011.007-.012.007-.027.016-.342.201-.257.151-.314.184-.178.105-.192.113-.207.122-.013.007-.014.008-.027.016-.014.008-.006.004-.007.004-.007.004-.007.004-.014.008-.027.017-.014.008-.007.004-.007.004-.029.017-.028.017zm1.519-.927q.182-.068.357-.096l-.654-3.946a6 6 0 0 0-1.118.301zm.738-.199a.8.8 0 0 1-.248.049 1 1 0 0 1-.363-.045l1.18-3.822a3.03 3.03 0 0 0-1.985.077zm.024.092q.036.002.007-.002l-.032-.01-.035-.016q-.017-.01-.025-.017l-.005-.003a.4.4 0 0 1 .059.078l3.369-2.156c-.757-1.183-1.951-1.906-3.427-1.873zm.154.275c-.057-.064.034-.015.068.376l3.985-.349c-.081-.925-.365-1.892-1.054-2.673zm.087.529c.064.381.094 1.102.036 2.259l3.995.2c.061-1.226.051-2.295-.085-3.113zm.037 2.234a28 28 0 0 1-.224 2.122l3.962.553q.184-1.32.254-2.425zm-.234 2.206a35 35 0 0 1-.369 2.61l3.94.687q.287-1.638.411-2.912zm-.392 2.792a6 6 0 0 1-.045.398l3.95.627q.053-.333.082-.702zm-.045.398a9 9 0 0 0-.081.702l3.987.322q.021-.256.044-.397zm3.15 2.434c1.742-1.372 3.936-2.885 6.595-4.539l-2.113-3.397c-2.742 1.706-5.065 3.304-6.957 4.794zm6.652-4.577a.1.1 0 0 1 .032-.018l-.009.003-.016.003-.017.002h-.008l.035.008 1.038-3.864a3.94 3.94 0 0 0-3.283.544zm.222.041q.057.011.056.013l-.009-.004-.023-.014a.3.3 0 0 1-.052-.045l-.015-.018 3.485-1.963c-.617-1.096-1.634-1.732-2.814-1.919zm.124.183.014.018-.006-.014-.006-.021-.002-.017-.001-.004c0 .003 0 .023-.009.061l3.894.914c.283-1.206.048-2.403-.733-3.401zm-.01.023c-.045.19-.101.232-.156.269l2.228 3.322c.962-.645 1.565-1.585 1.822-2.677zm-.142.26a154 154 0 0 0-5.676 3.907l2.35 3.238a149 149 0 0 1 5.526-3.804zm-5.694 3.921a672 672 0 0 0-3.85 2.879l2.41 3.192q1.43-1.079 3.826-2.861zm-3.85 2.879-1.079.814-.269.204-.068.051-.005.004-.001.001-.001.001-.003.001-.003.003h-.001v.001h-.001v.001h-.001l-.001.001h-.001l-.001.001-.001.001-.001.001h-.001v.001l1.205 1.596 1.205 1.596h.001l.001-.001.004-.003.017-.013.012-.01.016-.011.039-.03.27-.203.202-.153.118-.089.129-.098.14-.106.152-.114.163-.123.021-.016.011-.008.005-.004.005-.004.022-.017.005-.004.006-.004.005-.004.006-.004.088-.067zm-1.747 1.375.058-.056.062-.041c.038-.019.046-.015.005-.008l.654 3.946c.837-.139 1.639-.521 2.249-1.228z"
        fill="#fff" fill-opacity=".1" mask="url(#g)" />
    <defs>
        <filter id="a" x="211.968" y="1.436" width="49.6" height="139.452"
            filterUnits="userSpaceOnUse" color-interpolation-filters="sRGB">
            <feFlood flood-opacity="0" result="BackgroundImageFix" />
            <feColorMatrix in="SourceAlpha" values="0 0 0 0 0 0 0 0 0 0 0 0 0 0 0 0 0 0 127 0"
                result="hardAlpha" />
            <feOffset dy="4" />
            <feGaussianBlur stdDeviation="2" />
            <feComposite in2="hardAlpha" operator="out" />
            <feColorMatrix values="0 0 0 0 0 0 0 0 0 0 0 0 0 0 0 0 0 0 0.25 0" />
            <feBlend in2="BackgroundImageFix" result="effect1_dropShadow_76_2" />
            <feBlend in="SourceGraphic" in2="effect1_dropShadow_76_2" result="shape" />
        </filter>
        <filter id="b" x="171.245" y="1.436" width="39.6" height="139.452"
            filterUnits="userSpaceOnUse" color-interpolation-filters="sRGB">
            <feFlood flood-opacity="0" result="BackgroundImageFix" />
            <feColorMatrix in="SourceAlpha" values="0 0 0 0 0 0 0 0 0 0 0 0 0 0 0 0 0 0 127 0"
                result="hardAlpha" />
            <feOffset dy="4" />
            <feGaussianBlur stdDeviation="2" />
            <feComposite in2="hardAlpha" operator="out" />
            <feColorMatrix values="0 0 0 0 0 0 0 0 0 0 0 0 0 0 0 0 0 0 0.25 0" />
            <feBlend in2="BackgroundImageFix" result="effect1_dropShadow_76_2" />
            <feBlend in="SourceGraphic" in2="effect1_dropShadow_76_2" result="shape" />
        </filter>
        <filter id="c" x="116.757" y="1.436" width="53.9" height="139.452"
            filterUnits="userSpaceOnUse" color-interpolation-filters="sRGB">
            <feFlood flood-opacity="0" result="BackgroundImageFix" />
            <feColorMatrix in="SourceAlpha" values="0 0 0 0 0 0 0 0 0 0 0 0 0 0 0 0 0 0 127 0"
                result="hardAlpha" />
            <feOffset dy="4" />
            <feGaussianBlur stdDeviation="2" />
            <feComposite in2="hardAlpha" operator="out" />
            <feColorMatrix values="0 0 0 0 0 0 0 0 0 0 0 0 0 0 0 0 0 0 0.25 0" />
            <feBlend in2="BackgroundImageFix" result="effect1_dropShadow_76_2" />
            <feBlend in="SourceGraphic" in2="effect1_dropShadow_76_2" result="shape" />
        </filter>
        <filter id="d" x="96.552" y="1.436" width="19.1" height="139.452"
            filterUnits="userSpaceOnUse" color-interpolation-filters="sRGB">
            <feFlood flood-opacity="0" result="BackgroundImageFix" />
            <feColorMatrix in="SourceAlpha" values="0 0 0 0 0 0 0 0 0 0 0 0 0 0 0 0 0 0 127 0"
                result="hardAlpha" />
            <feOffset dy="4" />
            <feGaussianBlur stdDeviation="2" />
            <feComposite in2="hardAlpha" operator="out" />
            <feColorMatrix values="0 0 0 0 0 0 0 0 0 0 0 0 0 0 0 0 0 0 0.25 0" />
            <feBlend in2="BackgroundImageFix" result="effect1_dropShadow_76_2" />
            <feBlend in="SourceGraphic" in2="effect1_dropShadow_76_2" result="shape" />
        </filter>
        <filter id="e" x="56.206" y="1.436" width="40" height="139.452" filterUnits="userSpaceOnUse"
            color-interpolation-filters="sRGB">
            <feFlood flood-opacity="0" result="BackgroundImageFix" />
            <feColorMatrix in="SourceAlpha" values="0 0 0 0 0 0 0 0 0 0 0 0 0 0 0 0 0 0 127 0"
                result="hardAlpha" />
            <feOffset dy="4" />
            <feGaussianBlur stdDeviation="2" />
            <feComposite in2="hardAlpha" operator="out" />
            <feColorMatrix values="0 0 0 0 0 0 0 0 0 0 0 0 0 0 0 0 0 0 0.25 0" />
            <feBlend in2="BackgroundImageFix" result="effect1_dropShadow_76_2" />
            <feBlend in="SourceGraphic" in2="effect1_dropShadow_76_2" result="shape" />
        </filter>
        <filter id="f" x=".8" y=".3" width="52.3" height="142.048" filterUnits="userSpaceOnUse"
            color-interpolation-filters="sRGB">
            <feFlood flood-opacity="0" result="BackgroundImageFix" />
            <feColorMatrix in="SourceAlpha" values="0 0 0 0 0 0 0 0 0 0 0 0 0 0 0 0 0 0 127 0"
                result="hardAlpha" />
            <feOffset dy="4" />
            <feGaussianBlur stdDeviation="2" />
            <feComposite in2="hardAlpha" operator="out" />
            <feColorMatrix values="0 0 0 0 0 0 0 0 0 0 0 0 0 0 0 0 0 0 0.25 0" />
            <feBlend in2="BackgroundImageFix" result="effect1_dropShadow_76_2" />
            <feBlend in="SourceGraphic" in2="effect1_dropShadow_76_2" result="shape" />
        </filter>
    </defs>
</svg>